<?xml version="1.0" encoding="UTF-8" standalone="no"?>
<svg
   xmlns:dc="http://purl.org/dc/elements/1.1/"
   xmlns:cc="http://creativecommons.org/ns#"
   xmlns:rdf="http://www.w3.org/1999/02/22-rdf-syntax-ns#"
   xmlns:svg="http://www.w3.org/2000/svg"
   xmlns="http://www.w3.org/2000/svg"
   xmlns:sodipodi="http://sodipodi.sourceforge.net/DTD/sodipodi-0.dtd"
   xmlns:inkscape="http://www.inkscape.org/namespaces/inkscape"
   width="63.200146mm"
   height="19.08894mm"
   viewBox="0 0 63.200146 19.08894"
   version="1.1"
   id="svg4516"
   inkscape:version="1.0.2 (1.0.2+r75+1)"
   sodipodi:docname="nci-logo.svg">
  <defs
     id="defs4510" />
  <sodipodi:namedview
     id="base"
     pagecolor="#ffffff"
     bordercolor="#666666"
     borderopacity="1.0"
     inkscape:pageopacity="0.0"
     inkscape:pageshadow="2"
     inkscape:zoom="2.2653214"
     inkscape:cx="137.95722"
     inkscape:cy="-33.974257"
     inkscape:document-units="mm"
     inkscape:current-layer="layer1"
     inkscape:document-rotation="0"
     showgrid="false"
     inkscape:window-width="1600"
     inkscape:window-height="833"
     inkscape:window-x="0"
     inkscape:window-y="0"
     inkscape:window-maximized="1" />
  <metadata
     id="metadata4513">
    <rdf:RDF>
      <cc:Work
         rdf:about="">
        <dc:format>image/svg+xml</dc:format>
        <dc:type
           rdf:resource="http://purl.org/dc/dcmitype/StillImage" />
        <dc:title></dc:title>
      </cc:Work>
    </rdf:RDF>
  </metadata>
  <g
     inkscape:label="Layer 1"
     inkscape:groupmode="layer"
     id="layer1"
     transform="translate(-38.046984,-107.91627)">
    <path
       style="fill:#ba0f3d;stroke-width:0.0881944"
       d="m 60.799557,126.67476 c 0.107209,-0.1817 1.348361,-2.3291 2.758118,-4.77199 l 2.563194,-4.44162 -2.556754,-4.432 c -1.406216,-2.43759 -2.647368,-4.58519 -2.758119,-4.77243 l -0.201363,-0.34045 1.050729,0.0318 c 0.957283,0.0289 1.087472,0.0534 1.463888,0.27464 0.227239,0.13358 0.489753,0.35186 0.583366,0.48507 0.09361,0.13321 1.269613,2.15712 2.613334,4.49758 l 2.443129,4.25538 -2.443129,4.25538 c -1.343721,2.34046 -2.519721,4.36437 -2.613334,4.49758 -0.09361,0.1332 -0.356127,0.35148 -0.583366,0.48507 -0.376416,0.22127 -0.506605,0.2457 -1.463888,0.27464 l -1.050729,0.0318 z m 18.615021,-1.12874 c -0.376626,-0.10472 -1.053973,-0.46318 -1.053973,-0.55777 0,-0.0235 0.102693,-0.17743 0.228206,-0.34198 l 0.228206,-0.2992 0.462432,0.26099 c 0.489132,0.27604 0.748448,0.31888 1.027232,0.16968 0.196593,-0.10521 0.224364,-0.37164 0.05352,-0.51343 -0.06439,-0.0534 -0.388614,-0.18104 -0.720498,-0.28355 -0.820455,-0.25341 -1.102706,-0.54048 -1.102706,-1.12152 0,-0.96227 0.966789,-1.4261 2.139589,-1.02648 0.581665,0.19819 0.648372,0.31064 0.404746,0.6823 -0.189398,0.28893 -0.210853,0.29827 -0.400103,0.17427 -0.295341,-0.19351 -0.812651,-0.28867 -1.059385,-0.19486 -0.166708,0.0634 -0.208383,0.135 -0.186708,0.32084 0.02489,0.21342 0.09516,0.25964 0.651037,0.42823 1.002652,0.3041 1.273046,0.56773 1.273046,1.24121 0,0.84968 -0.91322,1.34806 -1.944638,1.06127 z m 12.235628,0.0267 c -0.377992,-0.0679 -0.711397,-0.28847 -0.981025,-0.64911 -0.163226,-0.21833 -0.184703,-0.39155 -0.209823,-1.6923 l -0.02798,-1.44907 h 0.394541 0.394541 l 0.0314,1.25677 c 0.03411,1.36517 0.09599,1.56857 0.532201,1.74925 0.345305,0.14303 0.665257,0.0336 0.866458,-0.29641 0.150064,-0.24611 0.173368,-0.447 0.173653,-1.49694 l 3.3e-4,-1.21267 h 0.440972 0.440973 l -5.3e-4,1.16858 c -5.29e-4,1.22251 -0.08548,1.71874 -0.360557,2.10579 -0.294524,0.41441 -1.024216,0.63657 -1.695184,0.51611 z m -19.286823,-1.8943 v -1.89618 h 0.440972 0.440972 v 1.89618 1.89618 h -0.440972 -0.440972 z m 1.852083,0 v -1.89618 h 0.387189 0.387188 l 0.869583,1.14613 c 0.47827,0.63037 0.899347,1.14631 0.935728,1.14653 0.03638,2.2e-4 0.06615,-0.51554 0.06615,-1.14613 v -1.14653 h 0.396875 0.396875 v 1.89618 1.89618 l -0.418924,-4.4e-4 -0.418924,-4.4e-4 -0.881944,-1.16272 -0.881945,-1.16272 -0.02461,1.16312 -0.02461,1.16312 h -0.394316 -0.394315 v -1.89618 z m 8.62309,0.37483 -0.02413,-1.52136 -0.551215,-0.0263 -0.551216,-0.0263 v -0.34857 -0.34856 h 1.499306 1.499306 v 0.34837 0.34838 l -0.507119,0.0264 -0.507118,0.0264 -0.02413,1.52135 -0.02413,1.52136 H 83.2554 82.862691 Z m 2.577605,-0.37483 v -1.89618 h 0.396875 0.396875 v 1.89618 1.89618 h -0.396875 -0.396875 z m 2.469445,0.35278 v -1.5434 h -0.529167 -0.529167 v -0.35278 -0.35278 h 1.499306 1.499306 v 0.34838 0.34837 l -0.507118,0.0264 -0.507118,0.0264 -0.02413,1.52136 -0.02413,1.52135 h -0.438892 -0.43889 z m 7.408334,0 v -1.5434 h -0.529167 -0.529167 v -0.35278 -0.35278 h 1.499306 1.499304 v 0.35278 0.35278 h -0.52917 -0.529162 v 1.5434 1.5434 H 95.734912 95.29394 Z m 2.557636,-0.35278 v -1.89618 h 1.36702 1.367014 v 0.39688 0.39687 h -0.926044 -0.92604 v 0.35278 0.35278 h 0.83784 0.837854 v 0.39687 0.39688 h -0.837854 -0.83784 v 0.39687 0.39688 h 0.97014 0.970144 v 0.35277 0.35278 h -1.411124 -1.41111 z m -24.518054,-4.32984 c -0.724347,-0.31375 -1.146528,-0.97644 -1.146528,-1.79967 0,-0.63859 0.196961,-1.07964 0.66606,-1.49152 0.427284,-0.37516 0.645019,-0.44876 1.32757,-0.44876 0.610772,0 1.083619,0.17716 1.396652,0.52329 0.170589,0.18863 0.170215,0.19025 -0.107676,0.46814 l -0.27886,0.27886 -0.222376,-0.20891 c -0.16115,-0.15139 -0.355974,-0.21999 -0.707619,-0.24915 -0.470015,-0.039 -0.496332,-0.0292 -0.838525,0.31304 -0.322272,0.32227 -0.353282,0.39381 -0.353282,0.81501 0,0.42125 0.03099,0.49271 0.353549,0.81527 0.334482,0.33448 0.376681,0.35133 0.782482,0.31233 0.250603,-0.0241 0.547104,-0.12536 0.713164,-0.2436 l 0.284232,-0.20239 0.278252,0.28012 0.278252,0.28013 -0.220486,0.17867 c -0.620941,0.50318 -1.549755,0.6629 -2.204861,0.37914 z m 2.557639,0.0674 c 0,-0.0403 0.350661,-0.88366 0.779247,-1.87413 l 0.779248,-1.80087 0.439471,-0.0261 c 0.406223,-0.0241 0.448146,-0.007 0.554148,0.22049 0.201757,0.43384 1.50483,3.47975 1.50483,3.51751 0,0.02 -0.200637,0.0364 -0.44586,0.0364 h -0.44586 l -0.183259,-0.44098 -0.18326,-0.44097 h -0.77954 -0.77954 l -0.189701,0.44097 -0.189701,0.44098 h -0.430111 c -0.236562,0 -0.430112,-0.033 -0.430112,-0.0733 z m 2.454745,-1.5808 c -0.01617,-0.0366 -0.104243,-0.25489 -0.19572,-0.48507 -0.09148,-0.23018 -0.19573,-0.41851 -0.231674,-0.41851 -0.05856,0 -0.439851,0.7978 -0.439851,0.92034 0,0.0274 0.201744,0.0498 0.448321,0.0498 0.246578,0 0.435093,-0.0299 0.418924,-0.0666 z m 2.043172,-0.24212 v -1.89618 h 0.429052 0.429053 l 0.871815,1.14685 0.871816,1.14685 0.02461,-1.14685 0.02461,-1.14685 h 0.438413 0.438412 v 1.89618 1.89618 h -0.418928 -0.418928 l -0.88194,-1.16017 -0.881941,-1.16016 -0.02461,1.16016 -0.02461,1.16017 h -0.438413 -0.438411 z m 5.483568,1.79581 c -0.401847,-0.11576 -1.038645,-0.77276 -1.154936,-1.19157 -0.27971,-1.00733 0.115642,-1.97992 0.985148,-2.42351 0.542475,-0.27675 1.557809,-0.21032 2.072505,0.13559 0.206154,0.13855 0.374826,0.29874 0.374826,0.35598 0,0.0572 -0.116896,0.21607 -0.25977,0.35295 l -0.259771,0.24887 -0.28737,-0.2418 c -0.253691,-0.21347 -0.342824,-0.23721 -0.760529,-0.20257 -0.642218,0.0533 -0.996975,0.39233 -1.054315,1.00771 -0.09429,1.01196 0.938626,1.61241 1.785308,1.03784 l 0.334697,-0.22713 0.272923,0.27723 0.272924,0.27724 -0.307179,0.2601 c -0.486894,0.41228 -1.282748,0.54387 -2.014461,0.33307 z m 2.983099,-1.79357 v -1.89842 h 1.367014 1.367014 v 0.34979 0.3498 l -0.948091,0.025 -0.94809,0.025 v 0.35277 0.35278 l 0.859896,0.0252 0.859896,0.0252 v 0.34639 0.34639 l -0.859896,0.0252 -0.859896,0.0252 -0.02712,0.37483 -0.02712,0.37483 h 1.024379 1.024379 l -0.02712,0.37482 -0.02712,0.37483 -1.389063,0.0243 -1.389062,0.0243 z m 3.527778,-0.002 v -1.89618 h 1.11115 c 1.247921,0 1.626615,0.11002 1.847249,0.53668 0.281663,0.54467 0.08464,1.5202 -0.354502,1.75522 l -0.210345,0.11257 0.48626,0.69394 0.48626,0.69395 H 95.21778 94.685965 l -0.423616,-0.61692 c -0.377624,-0.54994 -0.454739,-0.61696 -0.71025,-0.61736 l -0.286632,-4.4e-4 v 0.61736 0.61736 h -0.440972 -0.440972 z m 2.085592,-0.2313 c 0.0656,-0.0544 0.119269,-0.25148 0.119269,-0.43786 0,-0.42104 -0.160238,-0.52147 -0.832049,-0.52147 h -0.490868 v 0.58583 0.58583 l 0.54219,-0.0567 c 0.298204,-0.0312 0.59586,-0.10122 0.661458,-0.15566 z m -7.604787,-4.08239 c -0.542521,-0.16986 -0.899081,-0.47871 -1.153868,-0.99948 -0.198243,-0.40519 -0.223458,-0.54823 -0.183779,-1.04255 0.0572,-0.71262 0.332836,-1.16339 0.92379,-1.51076 0.352893,-0.20744 0.520647,-0.24741 1.03826,-0.24741 0.517612,0 0.685367,0.04 1.038259,0.24741 0.611481,0.35943 0.889628,0.82597 0.931213,1.56193 0.0249,0.44073 -0.0068,0.67926 -0.122957,0.92396 -0.23416,0.49346 -0.712458,0.91054 -1.215485,1.05993 -0.526234,0.15627 -0.774163,0.15765 -1.255433,0.007 z m 1.34675,-0.9652 c 0.291058,-0.26673 0.326744,-0.34929 0.362068,-0.83763 0.03867,-0.5346 0.03453,-0.5464 -0.313801,-0.89473 -0.572544,-0.57255 -1.279077,-0.4882 -1.700537,0.20302 -0.476878,0.7821 0.06212,1.82524 0.943111,1.82524 0.315327,0 0.445583,-0.0543 0.709159,-0.2959 z m -15.847695,-0.89476 v -1.89619 l 0.418923,2.7e-4 0.418924,2.6e-4 0.881944,1.16791 0.881945,1.1679 0.02461,-1.16816 0.02461,-1.16816 h 0.438413 0.438412 v 1.89618 1.89619 H 75.45613 75.021096 l -0.865834,-1.1459 -0.865835,-1.14591 -0.02461,1.14589 -0.02461,1.14589 h -0.438412 -0.438412 z m 4.196571,1.38906 c 0.124078,-0.27892 0.490688,-1.13307 0.814687,-1.89813 l 0.589089,-1.391 0.435798,0.024 0.435797,0.024 0.809276,1.87413 0.809276,1.87413 h -0.464636 -0.464636 l -0.163076,-0.39654 -0.163077,-0.39655 -0.803816,-3.5e-4 -0.803817,-3.6e-4 -0.151568,0.39688 -0.151568,0.39687 H 76.81102 76.334357 l 0.225597,-0.50711 z m 2.192268,-1.27882 c -0.03368,-0.10914 -0.130384,-0.33496 -0.214891,-0.50182 l -0.15365,-0.30339 -0.187927,0.42484 c -0.10336,0.23366 -0.187927,0.45948 -0.187927,0.50182 0,0.0423 0.181268,0.077 0.402819,0.077 0.377087,0 0.398906,-0.0127 0.341576,-0.19843 z m 2.606994,0.24253 v -1.5434 H 80.83005 80.300883 v -0.35278 -0.35278 h 1.499306 1.499305 v 0.35278 0.35278 h -0.529166 -0.529167 v 1.5434 1.5434 h -0.440972 -0.440973 z m 2.55764,-0.35277 v -1.89619 h 0.440972 0.440972 v 1.89619 1.89617 h -0.440972 -0.440972 z m 6.261806,0 v -1.89619 l 0.418923,8.9e-4 0.418924,8.8e-4 0.926042,1.2118 0.926041,1.21181 0.02454,-1.21268 0.02454,-1.21267 h 0.394386 0.394387 v 1.89618 1.89618 h -0.431286 -0.431286 l -0.869582,-1.14535 -0.869583,-1.14536 -0.02461,1.14536 -0.02461,1.14535 h -0.438413 -0.438411 v -1.89618 z m 4.791677,0.022 0.809238,-1.87413 h 0.434275 0.434274 l 0.81536,1.87413 0.81535,1.87414 h -0.47092 -0.47091 l -0.15157,-0.39688 -0.15157,-0.39687 h -0.813885 -0.813883 l -0.151568,0.39687 -0.151568,0.39688 h -0.470931 -0.47093 z m 1.597162,0.0882 c -0.03368,-0.10914 -0.130384,-0.33496 -0.214891,-0.50182 l -0.15365,-0.30338 -0.187927,0.42484 c -0.10336,0.23366 -0.187927,0.45948 -0.187927,0.50182 0,0.0423 0.181268,0.077 0.402819,0.077 0.377091,0 0.398901,-0.0127 0.341576,-0.19844 z m 2.166025,-0.11024 v -1.89618 h 0.39479 0.39479 l 0.0241,1.52136 0.0241,1.52135 0.815804,0.0254 0.8158,0.0254 v 0.34947 0.34947 h -1.234724 -1.23472 z"
       id="path5177" />
    <path
       style="fill:#5f5f5f;stroke-width:0.0881944"
       d="m 39.378658,126.86986 c -0.428027,-0.13567 -1.0826,-0.81518 -1.215114,-1.2614 -0.155413,-0.52334 -0.155413,-15.77218 0,-16.29551 0.141749,-0.47732 0.792121,-1.12769 1.269444,-1.26944 0.276367,-0.0821 2.66683,-0.10781 10.015365,-0.10781 h 9.652355 l 2.712039,4.7625 2.712038,4.7625 -2.712038,4.7625 -2.712039,4.7625 -9.706685,-0.009 c -6.841499,-0.006 -9.7978,-0.0379 -10.015365,-0.10684 z m 3.2841,-8.22942 0.02319,-3.0536 1.896181,3.05013 1.89618,3.05014 0.727605,0.004 0.727604,0.003 v -4.23334 -4.23333 h -0.704413 -0.704412 l -0.02319,3.0536 -0.02319,3.0536 -1.89618,-3.05014 -1.896181,-3.05013 -0.727604,-0.004 -0.727604,-0.004 v 4.23333 4.23334 h 0.704412 0.704413 z m 8.092984,-1.17974 v -4.23333 h -0.705555 -0.705556 v 4.23333 4.23334 h 0.705556 0.705555 z m 2.822223,2.46945 v -1.76389 h 1.940278 1.940277 v 1.76389 1.76389 h 0.705556 0.705556 v -4.23334 -4.23333 H 58.164076 57.45852 v 1.76389 1.76389 h -1.940277 -1.940278 v -1.76389 -1.76389 h -0.705556 -0.705556 v 4.23333 4.23334 h 0.705556 0.705556 z m 38.612632,5.67239 c 0.06367,-0.0255 0.139734,-0.0223 0.16904,0.007 0.02931,0.0293 -0.02278,0.0502 -0.115755,0.0463 -0.102742,-0.004 -0.12364,-0.0251 -0.05329,-0.0533 z m -18.025742,-1.92413 c 6.6e-5,-1.06715 0.0128,-1.49159 0.0283,-0.9432 0.0155,0.54839 0.01544,1.42152 -8.8e-5,1.94028 -0.01557,0.51876 -0.02825,0.0701 -0.02818,-0.99708 z m 3.527778,0 c 6.6e-5,-1.06715 0.0128,-1.49159 0.0283,-0.9432 0.0155,0.54839 0.01544,1.42152 -8.8e-5,1.94028 -0.01556,0.51876 -0.02825,0.0701 -0.02818,-0.99708 z m 5.0974,0.42333 -0.01971,-1.51696 -0.507118,-0.0318 -0.507118,-0.0318 0.509885,-0.0167 c 0.347454,-0.0114 0.523777,0.0195 0.55349,0.097 0.02398,0.0625 0.0316,0.76695 0.01694,1.56546 l -0.02667,1.45182 z m 0.903213,-0.0706 0.0031,-1.49931 0.502255,-0.0263 0.502255,-0.0263 0.03556,-0.34917 0.03556,-0.34918 -0.0087,0.37548 -0.0087,0.37548 -0.505054,0.0264 -0.505054,0.0264 -0.02724,1.47292 -0.02724,1.47292 0.0031,-1.49931 z m 1.672304,-0.35278 c 6.6e-5,-1.06715 0.0128,-1.49159 0.0283,-0.9432 0.0155,0.54839 0.01544,1.42151 -8.9e-5,1.94027 -0.01556,0.51877 -0.02825,0.0701 -0.02818,-0.99707 z m 13.830996,1.12545 c 0.27891,-0.0175 0.73532,-0.0175 1.014234,0 0.27892,0.0175 0.0507,0.0318 -0.507114,0.0318 -0.55783,0 -0.78604,-0.0143 -0.50712,-0.0318 z m -22.388893,-1.8751 c 0,-0.65484 0.01388,-0.92274 0.03085,-0.59531 0.01697,0.32742 0.01697,0.8632 0,1.19062 -0.01697,0.32742 -0.03085,0.0595 -0.03085,-0.59531 z m 13.581945,0 c 0,-0.65484 0.01388,-0.92274 0.03085,-0.59531 0.01697,0.32742 0.01697,0.8632 0,1.19062 -0.01697,0.32742 -0.03085,0.0595 -0.03085,-0.59531 z m 0.881944,0 c 0,-0.65484 0.01388,-0.92274 0.03085,-0.59531 0.01697,0.32742 0.01697,0.8632 0,1.19062 -0.01697,0.32742 -0.03085,0.0595 -0.03085,-0.59531 z m -4.201735,-0.41658 c 0.157648,-0.0196 0.415616,-0.0196 0.573264,0 0.157648,0.0196 0.02866,0.0356 -0.286632,0.0356 -0.315295,0 -0.444279,-0.016 -0.286632,-0.0356 z m 2.265702,6.2e-4 0.480649,-0.0336 0.03556,-0.34918 0.03556,-0.34917 -0.0087,0.37548 -0.0087,0.37548 -0.50756,0.007 -0.507559,0.007 0.480648,-0.0336 z m 5.142632,-6.2e-4 c 0.157648,-0.0196 0.415616,-0.0196 0.573264,0 0.157647,0.0196 0.02866,0.0356 -0.286632,0.0356 -0.315295,0 -0.44428,-0.016 -0.286632,-0.0356 z m 1.940278,0 c 0.157647,-0.0196 0.415617,-0.0196 0.573267,0 0.15764,0.0196 0.0287,0.0356 -0.28664,0.0356 -0.31529,0 -0.444275,-0.016 -0.286627,-0.0356 z m 4.191211,-0.37717 c 0,-0.21828 0.0172,-0.30758 0.0382,-0.19844 0.021,0.10914 0.021,0.28774 0,0.39688 -0.021,0.10914 -0.0382,0.0198 -0.0382,-0.19844 z m -23.493739,-3.46527 c 0.0386,-0.0384 0.42375,-0.0579 0.855887,-0.0435 l 0.785702,0.0263 -0.855886,0.0435 c -0.470737,0.0239 -0.824304,0.0121 -0.785703,-0.0263 z m 12.557624,-0.32709 c 0,-0.21828 0.0172,-0.30758 0.03822,-0.19844 0.02102,0.10914 0.02102,0.28774 0,0.39688 -0.02102,0.10914 -0.03822,0.0198 -0.03822,-0.19844 z m 3.746293,-0.85599 c 0.10914,-0.021 0.287734,-0.021 0.396875,0 0.10914,0.021 0.01984,0.0382 -0.198438,0.0382 -0.218281,0 -0.307578,-0.0172 -0.198437,-0.0382 z m -3.748072,-0.68741 c 9.79e-4,-0.19403 0.01904,-0.26302 0.04014,-0.15332 0.02109,0.10971 0.02029,0.26846 -0.0018,0.35278 -0.02208,0.0843 -0.03933,-0.005 -0.03836,-0.19946 z m -11.993425,-1.16572 c 0.134061,-0.0203 0.332498,-0.0197 0.440972,10e-4 0.108474,0.0209 -0.0012,0.0375 -0.243747,0.0369 -0.242535,-7.1e-4 -0.331286,-0.0178 -0.197225,-0.0381 z m 2.910417,0 c 0.134061,-0.0203 0.332498,-0.0197 0.440972,10e-4 0.108474,0.0209 -0.0012,0.0375 -0.243747,0.0369 -0.242535,-7.1e-4 -0.331286,-0.0178 -0.197225,-0.0381 z m 2.734028,0 c 0.134061,-0.0203 0.332498,-0.0197 0.440972,10e-4 0.108474,0.0209 -0.0012,0.0375 -0.243747,0.0369 -0.242535,-7.1e-4 -0.331286,-0.0178 -0.197225,-0.0381 z m 6.220683,-0.002 c 0.402486,-0.0164 1.037486,-0.0163 1.411111,1.7e-4 0.373627,0.0165 0.04432,0.0299 -0.731791,0.0298 -0.776111,-9e-5 -1.081805,-0.0136 -0.67932,-0.03 z m 3.306325,4.4e-4 c 0.280685,-0.0176 0.717248,-0.0174 0.970139,3.5e-4 0.25289,0.0178 0.02324,0.0321 -0.510339,0.0319 -0.533576,-1.7e-4 -0.740486,-0.0147 -0.4598,-0.0323 z m -18.831707,-0.0853 c 0.109706,-0.0211 0.268456,-0.0203 0.352778,0.002 0.08432,0.0221 -0.0054,0.0393 -0.199466,0.0384 -0.194028,-9.8e-4 -0.263018,-0.019 -0.153312,-0.0401 z m 12.435417,0 c 0.109706,-0.0211 0.268456,-0.0203 0.352778,0.002 0.08432,0.0221 -0.0054,0.0393 -0.199466,0.0384 -0.194028,-9.8e-4 -0.263018,-0.019 -0.153312,-0.0401 z m 13.112852,-3.04986 c -0.024,-0.0625 -0.0316,-0.76695 -0.0169,-1.56545 l 0.0267,-1.45183 0.0197,1.51805 0.0197,1.51804 0.815804,0.0291 0.8158,0.0291 -0.81857,0.0183 c -0.600194,0.0134 -0.830204,-0.012 -0.862174,-0.0953 z m -6.707033,-1.78258 c 1.76e-4,-0.6791 0.01398,-0.94525 0.03077,-0.59146 0.01678,0.3538 0.01667,0.90943 -2.65e-4,1.23473 -0.01691,0.3253 -0.03064,0.0358 -0.0305,-0.64327 z M 80.543418,110.2535 c 0.157647,-0.0196 0.415616,-0.0196 0.573264,0 0.157647,0.0196 0.02866,0.0356 -0.286632,0.0356 -0.315295,0 -0.44428,-0.016 -0.286632,-0.0356 z m 1.940278,0 c 0.157647,-0.0196 0.415616,-0.0196 0.573264,0 0.157647,0.0196 0.02866,0.0356 -0.286632,0.0356 -0.315295,0 -0.44428,-0.016 -0.286632,-0.0356 z"
       id="path5179" />
  </g>
</svg>
